<?xml version="1.0" encoding="UTF-8"?>
<!-- Copyright (c) 2025 Ourchitecture. All rights reserved. -->
<svg version="1.1" xmlns="http://www.w3.org/2000/svg" width="1024" height="1024">
  <path d="M0,0 L456,0 L466,3 L476,12 L488,25 L500,37 L507,45 L518,57 L532,72L541,82 L555,97 L567,110 L579,123 L588,133 L599,145 L608,154 L615,162 L622,169 L629,177 L634,183 L637,193 L636,203 L633,209 L627,217 L622,222 L610,235 L599,247 L588,259 L579,270 L571,278 L564,286 L550,301 L538,315 L522,332 L513,342 L501,355 L490,367 L487,372 L488,376 L499,388 L506,395 L513,403 L513,405 L515,405 L522,413 L535,427 L542,435 L553,447 L562,457 L573,469 L580,477 L592,490 L604,504 L615,515 L622,523 L632,534 L639,542 L644,547 L649,552 L662,565 L669,573 L680,585 L687,594 L687,595 L542,595 L533,584 L521,571 L514,563 L503,551 L494,541 L483,529 L476,521 L461,505 L452,495 L443,485 L434,475 L427,468 L420,460 L420,458 L418,458 L411,450 L400,438 L391,428 L384,420 L372,406 L365,399 L358,391 L350,381 L347,375 L347,361 L350,354 L359,343 L369,333 L378,322 L387,312 L389,312 L391,308 L404,295 L411,287 L421,276 L430,265 L437,258 L444,250 L457,236 L464,228 L473,218 L481,208 L483,203 L482,194 L478,188 L463,172 L451,160 L444,152 L432,138 L418,123 L414,121 L106,120 L100,115 L91,104 L81,94 L74,86 L65,76 L56,66 L49,58 L46,55 L46,53 L44,53 L44,51 L42,51 L33,40 L18,24 L6,11 L0,4 Z " fill="#000000" transform="translate(192,200)"/>
  <path d="M0,0 L204,0 L204,4 L191,19 L179,32 L170,43 L157,58 L147,69 L140,77 L130,88 L123,96 L111,109 L102,119 L93,129 L83,140 L78,152 L80,164 L85,172 L94,182 L106,195 L115,205 L127,218 L134,226 L142,235 L142,237 L146,239 L151,245 L151,247 L155,249 L161,256 L161,258 L163,258 L170,266 L179,276 L192,290 L199,298 L210,310 L215,316 L215,318 L219,320 L229,332 L234,337 L250,354 L257,362 L272,377 L279,385 L285,391 L285,393 L91,393 L80,381 L66,366 L55,354 L46,343 L36,332 L29,324 L20,314 L13,306 L4,295 L-1,290 L-12,278 L-21,268 L-27,260 L-32,255 L-42,244 L-42,242 L-45,241 L-52,233 L-61,223 L-68,215 L-77,205 L-84,197 L-93,186 L-98,181 L-109,169 L-118,158 L-128,147 L-122,139 L-114,131 L-107,123 L-94,108 L-87,100 L-78,90 L-66,76 L-54,62 L-44,51 L-35,40 L-23,27 L-14,16 L-5,6 L-4,4 L-2,4 Z " fill="#000000" transform="translate(398,402)"/>
  <path d="M0,0 L4,1 L13,11 L24,23 L33,33 L42,43 L49,51 L61,64 L68,72 L81,86 L88,94 L99,106 L99,108 L92,109 L-93,109 L-91,104 L-80,92 L-73,84 L-62,71 L-51,59 L-44,51 L-35,40 L-22,26 L-15,18 L-4,5 Z " fill="#000000" transform="translate(349,686)"/>
</svg>
